# xmcd
#
# Track frame offsets: 
#        150
#        15987
#        31211
#        43949
#        57554
#        74660
#        85747
#        103484
#        116333
#        132842
#        151865
#        170850
#        183622
#
# Disc length: 2648 seconds
#
# Revision: 0
# Processed by: cddbd v1.4PL0 Copyright (c) Steve Scherf et al.
# Submitted via: ExactAudioCopy v0.95a3
#
DISCID=b60a560d
DTITLE=Airo e Ruan - Do Brasil à Argentina
DYEAR=2003
DGENRE=
TTITLE0=Do Brasil à Argentina
TTITLE1=è Só o Começo
TTITLE2=Dia Especial
TTITLE3=Vou Buscar a Goiana
TTITLE4=Brisa da Noite
TTITLE5=Gandaia
TTITLE6=Decore a Cena
TTITLE7=Vai Ter Que Rebolar
TTITLE8=Não Vou Mentir
TTITLE9=Um Gole a Mais
TTITLE10=Decida
TTITLE11=Lado Safado
TTITLE12=Tenho Que Ir
EXTD=
EXTT0=
EXTT1=
EXTT2=
EXTT3=
EXTT4=
EXTT5=
EXTT6=
EXTT7=
EXTT8=
EXTT9=
EXTT10=
EXTT11=
EXTT12=
PLAYORDER=
